<?xml version="1.0" standalone="no"?>
<!DOCTYPE svg PUBLIC "-//W3C//DTD SVG 1.1//EN"
  "http://www.w3.org/Graphics/SVG/1.1/DTD/svg11.dtd">
<svg version="1.0" xmlns="http://www.w3.org/2000/svg"
  width="512.000000pt" height="512.000000pt"
  viewBox="0 0 512.000000 512.000000" preserveAspectRatio="xMidYMid meet">
  <g transform="translate(0.000000,512.000000) scale(0.100000,-0.100000)" fill="#000000" stroke="none">
  <path d="M3475 4630 c-340 -85 -460 -120 -940 -280 l-550 -182 -540 -240
  c-297 -132 -549 -245 -561 -253 -11 -7 -94 -134 -184 -281 -89 -148 -183 -300
  -207 -339 -25 -38 -99 -159 -165 -269 l-121 -199 17 -196 c10 -108 24 -266 32
  -351 8 -85 16 -182 19 -215 13 -154 17 -186 26 -271 l11 -91 67 -85 c36 -47
  179 -234 316 -417 220 -292 254 -332 285 -341 19 -5 157 -23 305 -40 149 -18
  356 -42 460 -55 105 -13 251 -29 325 -35 74 -6 225 -20 335 -30 110 -11 333
  -31 495 -45 l295 -25 555 158 555 159 43 114 c23 63 54 148 68 189 13 41 29
  84 35 95 5 11 40 110 78 220 38 110 89 256 115 325 37 100 61 197 121 490 40
  201 90 446 111 545 l37 180 -32 455 c-17 250 -34 501 -38 557 -3 56 -9 106
  -12 111 -3 5 -100 83 -216 173 -115 91 -325 256 -466 367 -141 111 -263 202
  -270 201 -8 -1 -190 -45 -404 -99z"/>
  </g>
</svg>
